{"title":"Formula 1 2014-The F1 Show China-18.04.14.720p.H264.AC3.TBK","uid":9989900,"size":1177145573,"categoryP":"video","categoryS":"hd___tv_shows","magnet":"?xt=urn:btih:c2daef37a1c3da6914e40bec0eacbb3ae3e6c3c1&amp;dn=Formula+1+2014-The+F1+Show+China-18.04.14.720p.H264.AC3.TBK&amp;tr=udp%3A%2F%2Ftracker.openbittorrent.com%3A80&amp;tr=udp%3A%2F%2Fopen.demonii.com%3A1337&amp;tr=udp%3A%2F%2Ftracker.coppersurfer.tk%3A6969&amp;tr=udp%3A%2F%2Fexodus.desync.com%3A6969","seeders":1,"leechers":0,"uploader":"tbkf1","files":3,"time":1397837940,"description":"The F1 Show 18.04.14 (China)\n\nCoverage of the SKY SPORTS F1 SHOW For the Chinese Torro Rosso Special \n\nMAIN FILE DETAILS:\n\nAir Date: 18.04.14\nResolution: 1280x720\nAudio: AC3 5.1 Channel Dolby Digital \nVideo: H.264 Profile 4.0 High\nContainer: MKV\nRunning Time: 49:12\nBroadcast Time: 11:00-12:00\nSource: Encoded From VU+ Solo2 PVR\nBroadcast: Sky Sports F1 HD (UK)\nFilesize: 1.09 GB\n\nDavid Croft &amp; Rachel Brookes are joined by Torro Rosso duo Jean Eric Vergne &amp; Daniil Kvyat to preview the Chinese Grand Prix\n\n\nI will be providing the entire F1 Season from Sky Sports F1 HD.. Please visit my blog below for full details of everything you need\nfor the forthcoming F1 2014 Season including links to all torrents and fileshare downloads.\n\nFormula 1 Blog: see /txt file\n\nAll Commercials have been removed\n\nThese video files will play very fluidly with the standard media players such as VLC, WMP, KM Player, WMC, MP-HC.\n\nFOR ALL YOUR LATEST F1 NEWS, TRACK GUIDES &amp; FULL TORRENT &amp; FILESHARE LINKS INFORMATION IN MORE DETAIL, PLEASE KEEP YOUR EYE ON MY BLOG\n\n\n**For anyone having mkv playback issues on Windows 7 or 8, I do recommend installing the Shark Codec Packs which are available free on the link below: http://shark007.net/ (*NOTE: sharks default settings work well for WMP)\n\nEXTENDED FILE DETAILS:\n\n\nFormat                                   : AVC\nFormat/Info                              : Advanced Video Codec\nFormat profile                           : &lt;a class=&quot;__cf_email__&quot; href=&quot;/cdn-cgi/l/email-protection&quot; data-cfemail=&quot;a9e1c0cec1e9e59d8799&quot;&gt;[email&amp;#160;protected]&lt;/a&gt;&lt;script cf-hash='f9e31' type=&quot;text/javascript&quot;&gt;\n/* &lt;![CDATA[ */!function(){try{var t=&quot;currentScript&quot;in document?document.currentScript:function(){for(var t=document.getElementsByTagName(&quot;script&quot;),e=t.length;e--;)if(t[e].getAttribute(&quot;cf-hash&quot;))return t[e]}();if(t&amp;&amp;t.previousSibling){var e,r,n,i,c=t.previousSibling,a=c.getAttribute(&quot;data-cfemail&quot;);if(a){for(e=&quot;&quot;,r=parseInt(a.substr(0,2),16),n=2;a.length-n;n+=2)i=parseInt(a.substr(n,2),16)^r,e+=String.fromCharCode(i);e=document.createTextNode(e),c.parentNode.replaceChild(e,c)}}}catch(u){}}();/* ]]&gt; */&lt;/script&gt;\nFormat settings, CABAC                   : Yes\nFormat settings, ReFrames                : 5 frames\nCodec ID                                 : V_MPEG4/ISO/AVC\nDuration                                 : 49mn 12s\nBit rate                                 : 2 741 Kbps\nWidth                                    : 1 280 pixels\nHeight                                   : 720 pixels\nDisplay aspect ratio                     : 16:9\nOriginal display aspect ratio            : 16:9\nFrame rate mode                          : Constant\nFrame rate                               : 25.000 fps\nColor space                              : YUV\nChroma subsampling                       : 4:2:0\nBit depth                                : 8 bits\nScan type                                : Progressive\nBits/(Pixel*Frame)                       : 0.119\nStream size                              : 965 MiB (86%)\nWriting library                          : x264 core 130 r2273 b3065e6\nLanguage                                 : English\nDefault                                  : Yes\nForced                                   : No\nColor primaries                          : BT.709\nTransfer characteristics                 : BT.709\nMatrix coefficients                      : BT.709\n\nAudio\nID                                       : 2\nFormat                                   : AC-3\nFormat/Info                              : Audio Coding 3\nMode extension                           : CM (complete main)\nFormat settings, Endianness              : Big\nCodec ID                                 : A_AC3\nDuration                                 : 49mn 12s\nBit rate mode                            : Constant\nBit rate                                 : 384 Kbps\nChannel(s)                               : 6 channels\nChannel positions                        : Front: L C R, Side: L R, LFE\nSampling rate                            : 48.0 KHz\nBit depth                                : 16 bits\nCompression mode                         : Lossy\nStream size                              : 135 MiB (12%)\nLanguage                                 : English\nDefault                                  : Yes\nForced                                   : No\n","torrent":{"xt":"urn:btih:c2daef37a1c3da6914e40bec0eacbb3ae3e6c3c1","amp;dn":"Formula+1+2014-The+F1+Show+China-18.04.14.720p.H264.AC3.TBK","amp;tr":["udp%3A%2F%2Ftracker.openbittorrent.com%3A80","udp%3A%2F%2Fopen.demonii.com%3A1337","udp%3A%2F%2Ftracker.coppersurfer.tk%3A6969","udp%3A%2F%2Fexodus.desync.com%3A6969"],"infoHash":"c2daef37a1c3da6914e40bec0eacbb3ae3e6c3c1","infoHashBuffer":{"type":"Buffer","data":[194,218,239,55,161,195,218,105,20,228,11,236,14,172,187,58,227,230,195,193]},"announce":[],"urlList":[]}}